<svg xmlns="http://www.w3.org/2000/svg" viewBox="0 0 44.5 45.51"><defs><style>.cls-1{fill:#c8102f;}</style></defs><title>icon-cuotas</title><g id="Capa_2" data-name="Capa 2"><g id="Layer_1" data-name="Layer 1"><rect class="cls-1" x="18.55" width="25.95" height="5.53"/><rect class="cls-1" x="18.55" y="7.49" width="25.95" height="5.53"/><rect class="cls-1" x="18.55" y="14.98" width="25.95" height="5.53"/><rect class="cls-1" x="18.55" y="22.47" width="25.95" height="5.53"/><rect class="cls-1" x="18.55" y="29.96" width="25.95" height="5.53"/><rect class="cls-1" x="18.55" y="37.46" width="25.95" height="5.53"/><path class="cls-1" d="M10.47,29.48c0,.79.49,1.35,1.48,1.67V27.9C11,28.16,10.47,28.69,10.47,29.48Z"/><path class="cls-1" d="M14,34.22v3.45Q15.7,37.28,15.7,36T14,34.22Z"/><path class="cls-1" d="M12.93,19.66A12.93,12.93,0,1,0,25.85,32.59,12.93,12.93,0,0,0,12.93,19.66ZM17,38.76a5.16,5.16,0,0,1-3,1.48v.2a.86.86,0,0,1-1,1c-.73,0-1.09-.32-1.09-1v-.2A4.71,4.71,0,0,1,7.7,36c-.13-.79.23-1.25,1.09-1.38s1.25.23,1.38,1.09a2.05,2.05,0,0,0,1.78,2v-4C9.32,33,8,31.58,8,29.48a3.7,3.7,0,0,1,1.14-2.72A5.09,5.09,0,0,1,12,25.33v-.5A1,1,0,0,1,13,23.75c.65,0,1,.36,1,1.08v.5a4.18,4.18,0,0,1,4.06,4.15c.13.79-.24,1.25-1.09,1.38a1.27,1.27,0,0,1-1.38-1.19A1.81,1.81,0,0,0,14,27.8v3.85q4.15,1.08,4.15,4.34A3.89,3.89,0,0,1,17,38.76Z"/></g></g></svg>