<svg xmlns="http://www.w3.org/2000/svg" viewBox="0 0 38.19 46.84"><defs><style>.cls-1{fill:#c8102f;}</style></defs><title>icon-seguridad-seguro-escudo</title><g id="Capa_2" data-name="Capa 2"><g id="Layer_1" data-name="Layer 1"><path class="cls-1" d="M19.09,0,0,10.34a64.36,64.36,0,0,0,.65,9.45,67.12,67.12,0,0,0,1.49,7.4,23.74,23.74,0,0,0,2.56,6,47.12,47.12,0,0,0,3,4.56,25.38,25.38,0,0,0,3.68,3.68,39.7,39.7,0,0,0,3.73,2.89l3.95,2.56,4-2.56a41.05,41.05,0,0,0,3.73-2.89,25.38,25.38,0,0,0,3.68-3.68,47.12,47.12,0,0,0,3-4.56,24.11,24.11,0,0,0,2.56-6,67.12,67.12,0,0,0,1.49-7.4,64.36,64.36,0,0,0,.65-9.45ZM32.17,18.59l-14,11.89a1.89,1.89,0,0,1-1.57.41,1.81,1.81,0,0,1-1-.53L8.89,23.57a1.9,1.9,0,1,1,2.7-2.66L17,26.44,29.71,15.7a1.9,1.9,0,1,1,2.46,2.89Z"/></g></g></svg>