<svg width="19" height="19" viewBox="0 0 19 19" fill="none" xmlns="http://www.w3.org/2000/svg">
<path d="M9.49341 19C14.7249 19 18.9868 14.7351 18.9868 9.5C18.9868 4.26489 14.7249 0 9.49341 0C4.26193 0 0 4.26489 0 9.5C0 14.7351 4.26193 19 9.49341 19ZM9.47321 4.26489C11.4527 4.26489 13.0484 5.8617 13.0484 7.84255C13.0484 9.8234 11.4527 11.4202 9.47321 11.4202C7.49373 11.4202 5.89803 9.8234 5.89803 7.84255C5.89803 5.88192 7.51393 4.26489 9.47321 4.26489ZM3.79736 16.0489C3.87816 15.8266 3.99935 15.584 4.16094 15.3819C5.49406 13.6032 7.43314 12.4915 9.554 12.4915C11.6749 12.4915 13.614 13.6032 14.9471 15.3819C15.0885 15.5638 15.1895 15.7457 15.2702 15.9479C13.7553 17.3426 11.7153 18.1915 9.49341 18.1915C7.31194 18.1915 5.33247 17.383 3.79736 16.0489Z" fill="#757575"/>
</svg>
