<svg width="29" height="29" viewBox="0 0 29 29" fill="none" xmlns="http://www.w3.org/2000/svg">
<path fill-rule="evenodd" clip-rule="evenodd" d="M10.8847 10.1857C11.3638 10.1157 11.8041 9.98409 12.1938 9.77384C12.5116 9.60232 12.7995 9.37544 13.0511 9.08261C12.904 8.38325 12.6435 7.7044 12.3123 7.06835C11.9284 6.33097 11.4511 5.65442 10.9454 5.07088C10.8029 5.08291 10.6577 5.10589 10.5116 5.13896C9.69485 5.32357 8.82202 5.80738 8.1506 6.46058C7.50694 7.08674 7.0608 7.86019 7.0608 8.65115C7.0608 8.80658 7.07672 8.95919 7.11014 9.10737C7.56972 11.1407 9.60273 14.8326 12.0228 18.0268C14.016 20.6577 16.249 22.9234 18.0324 23.5825C18.9524 23.9229 19.7572 23.8129 20.4487 23.4421C21.3299 22.9697 22.0595 22.0755 22.6278 21.1219L22.6184 21.0904C22.4208 20.4536 21.674 19.5909 20.9165 18.8866C20.2415 18.259 19.6325 17.7743 19.4686 17.7317C19.0596 17.8673 18.7047 18.074 18.4161 18.3487C18.1224 18.6282 17.8944 18.9815 17.7454 19.4054C17.6494 19.6812 17.3477 19.8268 17.0718 19.7308C16.9549 19.6899 16.8614 19.6121 16.7997 19.515L10.5344 11.0228C10.3617 10.7881 10.4117 10.4578 10.6464 10.2851C10.7192 10.2315 10.8013 10.1993 10.8849 10.1874L10.8847 10.1857V10.1857V10.1857ZM12.6953 10.7063C12.4329 10.8477 12.1558 10.9614 11.866 11.05L17.1564 18.2203C17.3098 17.9845 17.4876 17.7715 17.687 17.5817C18.1088 17.1803 18.6253 16.8854 19.2173 16.7013C19.2578 16.6887 19.3018 16.6803 19.3494 16.6758C19.7336 16.6403 20.7283 17.2657 21.6376 18.1112C22.5037 18.9164 23.3703 19.9431 23.6299 20.7793C23.6656 20.8945 23.6911 21.0097 23.7049 21.124C23.7272 21.2432 23.7086 21.3705 23.6439 21.4836C22.9801 22.6417 22.0855 23.7635 20.9462 24.3741C19.9994 24.8814 18.9063 25.0347 17.6677 24.5767C15.6758 23.8408 13.2776 21.4366 11.1774 18.6645C8.67826 15.3659 6.56798 11.5059 6.07834 9.33918C6.02529 9.10418 6 8.87448 6 8.65097C6 7.5495 6.57841 6.51398 7.41305 5.70198C8.2201 4.91704 9.28019 4.33279 10.2796 4.1068C10.5884 4.03696 10.8892 4 11.1739 4V4.00088C11.3176 4.00088 11.461 4.05924 11.5654 4.174C12.1903 4.8624 12.785 5.68006 13.253 6.57923C13.6638 7.36789 13.9791 8.22286 14.1359 9.11355C14.1662 9.25731 14.137 9.41292 14.0422 9.54006C13.6634 10.0474 13.2097 10.4288 12.6953 10.7063V10.7063Z" fill="black"/>
</svg>
