<svg xmlns="http://www.w3.org/2000/svg" viewBox="0 0 49.42 52.76"><defs><style>.cls-1{fill:#c8102f;}</style></defs><title>icon-tag-etiqueta-descuentos-promociones</title><g id="Capa_2" data-name="Capa 2"><g id="Layer_1" data-name="Layer 1"><path class="cls-1" d="M20.71,22.11a1.51,1.51,0,1,0-1.5,1.51A1.51,1.51,0,0,0,20.71,22.11Z"/><path class="cls-1" d="M31.17,30.8a1.51,1.51,0,0,0,0,3,1.51,1.51,0,1,0,0-3Z"/><path class="cls-1" d="M27.93,0,9.21.3,0,16.59,21.48,52.76,49.42,36.17ZM13.06,10.3a2.55,2.55,0,1,1,3.1-1.85A2.56,2.56,0,0,1,13.06,10.3Zm1.88,11.81a4.27,4.27,0,1,1,4.27,4.27A4.28,4.28,0,0,1,14.94,22.11Zm5.92,13.06a1.77,1.77,0,1,1-2.66-2.33L29.65,19.75a1.77,1.77,0,1,1,2.66,2.33Zm10.31,1.4a4.27,4.27,0,1,1,4.27-4.27A4.28,4.28,0,0,1,31.17,36.57Z"/></g></g></svg>