<svg width="29" height="29" viewBox="0 0 29 29" fill="none" xmlns="http://www.w3.org/2000/svg">
<path fill-rule="evenodd" clip-rule="evenodd" d="M15 1C7.81452 1 2 6.81128 2 14C2 16.7111 2.82676 19.2188 4.29531 21.3734C4.34997 21.4544 4.38567 21.5467 4.39973 21.6435C4.4138 21.7402 4.40588 21.8388 4.37656 21.932L3.05625 26.35L7.38281 24.857C7.47529 24.8262 7.57352 24.8166 7.67021 24.8289C7.7669 24.8413 7.85959 24.8751 7.94141 24.9281C9.96796 26.2431 12.394 27 15 27C22.1889 27 28 21.1889 28 14C28 6.81109 22.1889 1 15 1ZM9.67812 6.66719L12.0445 10.5774L11.0594 11.5524C10.9591 11.6536 10.8948 11.7849 10.8765 11.9262C10.8581 12.0675 10.8867 12.2109 10.9578 12.3344C12.4612 14.9378 14.2425 16.9633 16.7367 18.0625C16.8562 18.1156 16.989 18.1314 17.1177 18.1078C17.2463 18.0843 17.3649 18.0225 17.4578 17.9305L18.5039 16.8844L22.3227 19.2711C21.8998 20.2228 21.3485 20.7894 20.718 21.1195C19.9876 21.502 19.0954 21.5744 18.0773 21.3633C16.0412 20.9411 13.5817 19.3408 11.5773 17.2906C9.57303 15.2405 8.02197 12.7475 7.62656 10.7195C7.42886 9.70551 7.5162 8.83224 7.89062 8.13986C8.21302 7.54372 8.76064 7.03333 9.67812 6.66719V6.66719Z" fill="#00E676"/>
</svg>
